<?xml version="1.0" encoding="utf-8"?>
<!-- Generator: Adobe Illustrator 25.2.1, SVG Export Plug-In . SVG Version: 6.00 Build 0)  -->
<svg version="1.1" id="Capa_1" xmlns="http://www.w3.org/2000/svg" xmlns:xlink="http://www.w3.org/1999/xlink" x="0px" y="0px"
	 viewBox="0 0 150.4 70.1" style="enable-background:new 0 0 150.4 70.1;" xml:space="preserve">
<style type="text/css">
	.st0{fill:#FFFFFF;}
</style>
<g>
	<polygon class="st0" points="70.2,42.8 58.8,3.8 58.7,3.8 50.4,3.8 50.4,3.8 43.1,28.7 35.8,3.8 35.8,3.8 27.5,3.8 27.4,3.8 
		20.1,28.8 12.8,3.8 4.4,3.8 15.9,42.8 16,42.8 24.2,42.8 24.3,42.8 31.6,17.9 38.9,42.8 39,42.8 47.2,42.8 47.3,42.8 54.6,17.9 
		61.9,42.8 	"/>
	<polygon class="st0" points="79.8,29.5 82,29.5 85,40.5 87.9,29.5 90.1,29.5 93.3,40.6 96.2,29.5 98.3,29.5 94.6,42.8 92,42.8 
		89,32.6 86.2,42.8 83.6,42.8 	"/>
	<path class="st0" d="M105.8,41.1c0.6-0.2,1.2-0.4,1.7-0.6v-4H105c-1.4,0-2.4,0.2-2.9,0.7c-0.5,0.4-0.7,1-0.7,1.8
		c0,0.8,0.2,1.4,0.7,1.8c0.5,0.4,1.1,0.6,2,0.6C104.6,41.4,105.2,41.3,105.8,41.1 M100.1,41.9c-0.7-0.7-1.1-1.7-1.1-2.9
		c0-1.2,0.4-2.2,1.1-2.9c0.9-0.9,2.4-1.3,4.5-1.3h2.8V34c0-0.5-0.1-1-0.2-1.4c-0.1-0.4-0.3-0.7-0.5-0.9c-0.5-0.5-1.5-0.8-2.8-0.8
		c-1.1,0-2.3,0.1-3.6,0.3l-0.1-1.7c1.3-0.3,2.6-0.5,4-0.5c1.9,0,3.3,0.4,4.1,1.2c0.4,0.4,0.7,0.9,0.9,1.5c0.2,0.6,0.3,1.3,0.3,2.2
		v8.9h-1.8l-0.1-0.9c-1.3,0.9-2.7,1.3-4.2,1.3C102.1,43.2,101,42.8,100.1,41.9"/>
	<path class="st0" d="M116.6,49.2c-0.5-0.1-0.9-0.1-1.2-0.2l-0.2-1.8c0.9,0.1,1.7,0.2,2.5,0.2c1.3,0,2.2-0.2,2.8-0.7
		c0.3-0.3,0.5-0.6,0.6-1.1c0.1-0.5,0.2-1.1,0.2-1.8V42c-1.4,0.8-2.8,1.2-4.2,1.2c-1.5,0-2.6-0.4-3.3-1.2c-0.7-0.7-1.1-1.9-1.1-3.5
		v-9h2.2v8.8c0,0.6,0,1,0.1,1.4c0.1,0.4,0.3,0.6,0.5,0.9c0.4,0.5,1.2,0.7,2.1,0.7c0.6,0,1.2-0.1,1.8-0.2c0.6-0.2,1.3-0.4,1.8-0.6
		V29.5h2.2v14.3c0,1.8-0.4,3.1-1.2,4c-0.9,1-2.3,1.5-4.3,1.5C117.6,49.3,117.1,49.3,116.6,49.2"/>
	<path class="st0" d="M126.6,29.5h1.9l0.1,1.1c1.2-1,2.5-1.5,3.8-1.5c0.3,0,0.6,0,0.9,0.1v2c-0.4,0-0.8-0.1-1.2-0.1
		c-1.2,0-2.3,0.3-3.2,0.9v10.8h-2.2V29.5z"/>
	<path class="st0" d="M140.8,41.1c0.6-0.2,1.2-0.4,1.7-0.6v-4H140c-1.4,0-2.4,0.2-2.9,0.7c-0.5,0.4-0.7,1-0.7,1.8
		c0,0.8,0.2,1.4,0.7,1.8s1.1,0.6,2,0.6C139.6,41.4,140.2,41.3,140.8,41.1 M135.2,41.9c-0.7-0.7-1-1.7-1-2.9c0-1.2,0.4-2.2,1.1-2.9
		c0.9-0.9,2.4-1.3,4.5-1.3h2.8V34c0-0.5-0.1-1-0.2-1.4c-0.1-0.4-0.3-0.7-0.5-0.9c-0.5-0.5-1.5-0.8-2.8-0.8c-1.1,0-2.3,0.1-3.6,0.3
		l-0.1-1.7c1.3-0.3,2.6-0.5,4-0.5c1.9,0,3.3,0.4,4.1,1.2c0.4,0.4,0.7,0.9,0.9,1.5c0.2,0.6,0.3,1.3,0.3,2.2v8.9h-1.8l-0.1-0.9
		c-1.3,0.9-2.7,1.3-4.2,1.3C137.1,43.2,136,42.8,135.2,41.9"/>
	<g>
		<g>
			<path class="st0" d="M36.9,61.4V55h-2.3v-1.4h6.2V55h-2.3v6.4H36.9z"/>
			<path class="st0" d="M44.8,59.7h1.5c0,0.1-0.1,0.3-0.2,0.5c-0.1,0.2-0.3,0.4-0.5,0.6s-0.5,0.4-0.8,0.5c-0.3,0.1-0.7,0.2-1.1,0.2
				c-0.8,0-1.5-0.3-2.1-0.8c-0.5-0.6-0.8-1.3-0.8-2.1c0-0.9,0.3-1.6,0.8-2.1c0.5-0.6,1.2-0.8,2.1-0.8c0.8,0,1.4,0.3,2,0.8
				c0.5,0.5,0.8,1.2,0.8,2c0,0.1,0,0.2,0,0.4l0,0.2h-4.3c0.1,0.4,0.2,0.7,0.5,1c0.3,0.2,0.6,0.4,1,0.4c0.3,0,0.6-0.1,0.8-0.2
				C44.6,60,44.8,59.9,44.8,59.7z M42.1,58h2.9c-0.1-0.4-0.2-0.7-0.5-0.9c-0.2-0.2-0.6-0.4-0.9-0.4c-0.4,0-0.7,0.1-1,0.4
				C42.4,57.3,42.2,57.7,42.1,58z"/>
			<path class="st0" d="M47.7,61.4v-7.8h1.4v7.8H47.7z"/>
			<path class="st0" d="M54.4,59.7h1.5c0,0.1-0.1,0.3-0.2,0.5c-0.1,0.2-0.3,0.4-0.5,0.6s-0.5,0.4-0.8,0.5c-0.3,0.1-0.7,0.2-1.1,0.2
				c-0.8,0-1.5-0.3-2.1-0.8c-0.5-0.6-0.8-1.3-0.8-2.1c0-0.9,0.3-1.6,0.8-2.1c0.5-0.6,1.2-0.8,2.1-0.8c0.8,0,1.4,0.3,2,0.8
				c0.5,0.5,0.8,1.2,0.8,2c0,0.1,0,0.2,0,0.4l0,0.2h-4.3c0.1,0.4,0.2,0.7,0.5,1c0.3,0.2,0.6,0.4,1,0.4c0.3,0,0.6-0.1,0.8-0.2
				C54.2,60,54.3,59.9,54.4,59.7z M51.7,58h2.9c-0.1-0.4-0.2-0.7-0.5-0.9c-0.2-0.2-0.6-0.4-0.9-0.4c-0.4,0-0.7,0.1-1,0.4
				C52,57.3,51.8,57.7,51.7,58z"/>
			<path class="st0" d="M57.7,61.4V57h-1v-1.3h1v-0.8c0-0.4,0.1-0.8,0.4-1c0.3-0.3,0.6-0.4,1-0.4h1.2v1.2h-0.8c-0.1,0-0.2,0-0.3,0.1
				c-0.1,0.1-0.1,0.2-0.1,0.3v0.6h1.2V57h-1.2v4.4H57.7z"/>
			<path class="st0" d="M61.6,56.4c0.5-0.6,1.2-0.8,2.1-0.8c0.8,0,1.5,0.3,2.1,0.8c0.5,0.6,0.8,1.3,0.8,2.1c0,0.9-0.3,1.6-0.8,2.1
				c-0.5,0.6-1.2,0.8-2.1,0.8c-0.8,0-1.5-0.3-2.1-0.8c-0.5-0.6-0.8-1.3-0.8-2.1C60.8,57.7,61.1,57,61.6,56.4z M62.7,59.8
				c0.3,0.3,0.6,0.5,1.1,0.5c0.4,0,0.8-0.2,1.1-0.5c0.3-0.3,0.4-0.7,0.4-1.2c0-0.5-0.1-0.9-0.4-1.2c-0.3-0.3-0.6-0.5-1.1-0.5
				c-0.4,0-0.8,0.2-1.1,0.5c-0.3,0.3-0.4,0.7-0.4,1.2C62.2,59,62.4,59.4,62.7,59.8z M63.2,54.9l1.1-1.6h1.5l-1.3,1.6H63.2z"/>
			<path class="st0" d="M67.8,61.4v-5.7h1.3l0.1,0.6h0.1c0.1-0.1,0.2-0.2,0.4-0.3c0.3-0.2,0.7-0.3,1.2-0.3c0.6,0,1.2,0.2,1.6,0.7
				c0.4,0.4,0.6,1,0.6,1.7v3.4h-1.4v-3.3c0-0.4-0.1-0.7-0.3-0.9c-0.2-0.2-0.5-0.3-0.9-0.3c-0.4,0-0.7,0.1-0.9,0.3
				c-0.2,0.2-0.3,0.5-0.3,0.9v3.3H67.8z"/>
			<path class="st0" d="M74.5,61.4v-5.7h1.4v5.7H74.5z"/>
			<path class="st0" d="M81.2,59.3h1.4c-0.1,0.3-0.1,0.5-0.3,0.7c-0.1,0.2-0.3,0.5-0.5,0.7c-0.2,0.2-0.5,0.4-0.8,0.6
				c-0.3,0.1-0.7,0.2-1.1,0.2c-0.8,0-1.5-0.3-2.1-0.8c-0.5-0.6-0.8-1.3-0.8-2.1c0-0.9,0.3-1.6,0.8-2.1c0.5-0.6,1.2-0.8,2.1-0.8
				c0.4,0,0.8,0.1,1.1,0.2c0.3,0.1,0.6,0.3,0.8,0.6c0.2,0.2,0.4,0.5,0.5,0.7c0.1,0.2,0.2,0.5,0.3,0.7h-1.4c-0.2-0.6-0.7-0.9-1.3-0.9
				c-0.4,0-0.8,0.2-1.1,0.5c-0.3,0.3-0.4,0.7-0.4,1.2c0,0.5,0.1,0.9,0.4,1.2c0.3,0.3,0.6,0.5,1.1,0.5C80.6,60.2,81,59.9,81.2,59.3z"
				/>
			<path class="st0" d="M87.3,61.4l-0.1-0.6h-0.1c-0.1,0.1-0.2,0.2-0.4,0.3c-0.4,0.2-0.8,0.3-1.2,0.3c-0.6,0-1.1-0.2-1.5-0.5
				c-0.4-0.3-0.6-0.7-0.6-1.2c0-0.6,0.2-1,0.6-1.4c0.4-0.3,1-0.5,1.7-0.5h1.3v-0.1c0-0.3-0.1-0.6-0.3-0.8c-0.2-0.2-0.4-0.3-0.7-0.3
				c-0.3,0-0.5,0.1-0.7,0.2s-0.3,0.3-0.3,0.5h-1.4c0.1-0.5,0.3-1,0.7-1.3c0.4-0.4,1-0.5,1.7-0.5c0.7,0,1.3,0.2,1.7,0.6
				c0.4,0.4,0.7,0.9,0.7,1.6v3.6H87.3z M87.1,59.1v-0.2h-1.2c-0.7,0-1.1,0.2-1.1,0.7c0,0.2,0.1,0.4,0.2,0.5c0.2,0.1,0.4,0.2,0.7,0.2
				c0.4,0,0.8-0.1,1-0.3C87,59.8,87.1,59.5,87.1,59.1z"/>
			<path class="st0" d="M92.8,61.4v-7.8h1.5v7.8H92.8z"/>
			<path class="st0" d="M95.8,61.4v-5.7h1.3l0.1,0.6h0.1c0.1-0.1,0.2-0.2,0.4-0.3c0.3-0.2,0.7-0.3,1.2-0.3c0.6,0,1.2,0.2,1.6,0.7
				c0.4,0.4,0.6,1,0.6,1.7v3.4h-1.4v-3.3c0-0.4-0.1-0.7-0.3-0.9c-0.2-0.2-0.5-0.3-0.9-0.3c-0.4,0-0.7,0.1-0.9,0.3
				c-0.2,0.2-0.3,0.5-0.3,0.9v3.3H95.8z"/>
			<path class="st0" d="M102.5,61.4v-5.7h1.3l0.1,0.6h0.1c0.1-0.1,0.2-0.2,0.4-0.3c0.3-0.2,0.7-0.3,1.2-0.3c0.6,0,1.2,0.2,1.6,0.7
				c0.4,0.4,0.6,1,0.6,1.7v3.4h-1.4v-3.3c0-0.4-0.1-0.7-0.3-0.9c-0.2-0.2-0.5-0.3-0.9-0.3c-0.4,0-0.7,0.1-0.9,0.3
				c-0.2,0.2-0.3,0.5-0.3,0.9v3.3H102.5z"/>
			<path class="st0" d="M109.7,56.4c0.5-0.6,1.2-0.8,2.1-0.8c0.8,0,1.5,0.3,2.1,0.8c0.5,0.6,0.8,1.3,0.8,2.1c0,0.9-0.3,1.6-0.8,2.1
				c-0.5,0.6-1.2,0.8-2.1,0.8c-0.8,0-1.5-0.3-2.1-0.8c-0.5-0.6-0.8-1.3-0.8-2.1C108.9,57.7,109.1,57,109.7,56.4z M110.7,59.8
				c0.3,0.3,0.6,0.5,1.1,0.5c0.4,0,0.8-0.2,1.1-0.5c0.3-0.3,0.4-0.7,0.4-1.2c0-0.5-0.1-0.9-0.4-1.2c-0.3-0.3-0.6-0.5-1.1-0.5
				c-0.4,0-0.8,0.2-1.1,0.5c-0.3,0.3-0.4,0.7-0.4,1.2C110.3,59,110.4,59.4,110.7,59.8z"/>
			<path class="st0" d="M117,61.4l-2-5.7h1.5l1.3,4h0.2l1.3-4h1.5l-2,5.7H117z"/>
			<path class="st0" d="M125,61.4l-0.1-0.6h-0.1c-0.1,0.1-0.2,0.2-0.4,0.3c-0.4,0.2-0.8,0.3-1.2,0.3c-0.6,0-1.1-0.2-1.5-0.5
				c-0.4-0.3-0.6-0.7-0.6-1.2c0-0.6,0.2-1,0.6-1.4c0.4-0.3,1-0.5,1.7-0.5h1.3v-0.1c0-0.3-0.1-0.6-0.3-0.8c-0.2-0.2-0.4-0.3-0.7-0.3
				c-0.3,0-0.5,0.1-0.7,0.2s-0.3,0.3-0.3,0.5h-1.4c0.1-0.5,0.3-1,0.7-1.3c0.4-0.4,1-0.5,1.7-0.5c0.7,0,1.3,0.2,1.7,0.6
				c0.4,0.4,0.7,0.9,0.7,1.6v3.6H125z M124.8,59.1v-0.2h-1.2c-0.7,0-1.1,0.2-1.1,0.7c0,0.2,0.1,0.4,0.2,0.5c0.2,0.1,0.4,0.2,0.7,0.2
				c0.4,0,0.8-0.1,1-0.3C124.7,59.8,124.8,59.5,124.8,59.1z"/>
			<path class="st0" d="M127.8,60.1v-3h-0.9v-1.3h0.9v-1.6h1.4v1.6h1.3V57h-1.3v2.7c0,0.3,0.1,0.4,0.4,0.4h0.9v1.2h-1.2
				c-0.5,0-0.8-0.1-1.1-0.4C128,60.8,127.8,60.5,127.8,60.1z"/>
			<path class="st0" d="M131.7,61.4v-5.7h1.4v5.7H131.7z"/>
			<path class="st0" d="M135.1,56.4c0.5-0.6,1.2-0.8,2.1-0.8s1.5,0.3,2.1,0.8c0.5,0.6,0.8,1.3,0.8,2.1c0,0.9-0.3,1.6-0.8,2.1
				c-0.5,0.6-1.2,0.8-2.1,0.8s-1.5-0.3-2.1-0.8c-0.5-0.6-0.8-1.3-0.8-2.1C134.3,57.7,134.6,57,135.1,56.4z M136.1,59.8
				c0.3,0.3,0.6,0.5,1.1,0.5c0.4,0,0.8-0.2,1.1-0.5c0.3-0.3,0.4-0.7,0.4-1.2c0-0.5-0.1-0.9-0.4-1.2c-0.3-0.3-0.6-0.5-1.1-0.5
				c-0.4,0-0.8,0.2-1.1,0.5c-0.3,0.3-0.4,0.7-0.4,1.2C135.7,59,135.9,59.4,136.1,59.8z"/>
			<path class="st0" d="M141.3,61.4v-5.7h1.3l0.1,0.6h0.1c0.1-0.1,0.2-0.2,0.4-0.3c0.3-0.2,0.7-0.3,1.2-0.3c0.6,0,1.2,0.2,1.6,0.7
				c0.4,0.4,0.6,1,0.6,1.7v3.4h-1.4v-3.3c0-0.4-0.1-0.7-0.3-0.9c-0.2-0.2-0.5-0.3-0.9-0.3s-0.7,0.1-0.9,0.3
				c-0.2,0.2-0.3,0.5-0.3,0.9v3.3H141.3z"/>
		</g>
		<g>
			<ellipse class="st0" cx="75.2" cy="54.2" rx="0.9" ry="0.8"/>
		</g>
		<g>
			<ellipse class="st0" cx="132.5" cy="54.1" rx="0.9" ry="0.8"/>
		</g>
	</g>
</g>
</svg>
